<?xml version="1.0" encoding="UTF-8"?>
<svg xmlns="http://www.w3.org/2000/svg" version="1.1" viewBox="0 0 186.97 69.92">
  <defs>
    <style>
      .cls-1 {
        fill: #859cba;
        fill-rule: evenodd;
      }

      .cls-2 {
        fill: #1d3d8c;
      }
    </style>
  </defs>
  <!-- Generator: Adobe Illustrator 28.7.2, SVG Export Plug-In . SVG Version: 1.2.0 Build 154)  -->
  <g>
    <g id="Capa_1">
      <g>
        <g>
          <path class="cls-1" d="M162.67,34.33h18.7c-1.42,12.08-1.5,23.95,0,35.59h-18.7c1.55-11.86,1.59-23.72,0-35.59Z"/>
          <path class="cls-1" d="M0,38.09c1.24,2.67,2.48,5.34,3.72,8.01,22.23-8.08,26.7,19.23-.28,11.26-1.09,3.48-2.17,6.95-3.26,10.43,15.1,3.99,27.82,2.71,36.21-8.19,11.79,13.44,24.62,10.68,37.42,8.47-1.12-3.54-2.23-7.08-3.35-10.61-24.39,8.46-25.85-17.3,0-10.89,1.3-2.85,2.61-5.71,3.91-8.56-13.06-4.92-25.86-6.63-37.42,6.61-9.8-11.71-25.42-12.68-36.96-6.52Z"/>
          <path class="cls-1" d="M80.67,38.09c1.24,2.67,2.48,5.34,3.72,8.01,22.23-8.08,26.7,19.23-.28,11.26-1.09,3.48-2.17,6.95-3.26,10.43,15.1,3.99,27.82,2.71,36.21-8.19,11.79,13.44,24.62,10.68,37.42,8.47-1.12-3.54-2.23-7.08-3.35-10.61-24.39,8.46-25.85-17.3,0-10.89,1.3-2.85,2.61-5.71,3.91-8.56-13.06-4.92-25.86-6.63-37.42,6.61-9.8-11.71-25.42-12.68-36.96-6.52Z"/>
        </g>
        <g>
          <path class="cls-2" d="M29.44.5v28.72h-3.74V5.06l-10.19,24.15h-1.53L3.74,5.06v24.15H0V.5h5.37l9.38,22.13L24.08.5h5.37Z"/>
          <path class="cls-2" d="M61,29.21h-4.28l-2.66-6.37h-14.97l-2.66,6.37h-4.28L44.27.7h4.64l6.73,15.88h-3.98l-5.09-12.25-6.36,15.39h16.76l4.02,9.49Z"/>
          <path class="cls-2" d="M89.41,14.88c0,8.18-6.04,14.34-15.42,14.34h-10.28v-3.19h10.28c7.3,0,11.54-4.99,11.54-11.15s-4.1-11.19-11.54-11.19h-6.54v19.22h-3.74V.5h10.28c9.38,0,15.42,6.24,15.42,14.38Z"/>
          <path class="cls-2" d="M122.95,14.85c0,8.48-6.09,14.85-14.97,14.85s-14.92-6.37-14.92-14.85S99.1,0,107.98,0s14.97,6.37,14.97,14.85ZM119.07,14.85c0-6.72-4.37-11.67-11.09-11.67s-11.05,4.95-11.05,11.67,4.28,11.67,11.05,11.67,11.09-4.99,11.09-11.67Z"/>
          <path class="cls-2" d="M153.47,23.98c-2.53,3.32-6.13,5.73-11.45,5.73-8.66,0-15.47-6.03-15.47-14.85S133.36,0,142.02,0c5.32,0,9.02,2.41,11.41,5.68l-3.11,1.68c-1.71-2.45-4.87-4.18-8.3-4.18-6.58,0-11.59,4.78-11.59,11.67s5.01,11.67,11.59,11.67c3.43,0,6.58-1.77,8.3-4.18l3.16,1.64Z"/>
          <path class="cls-2" d="M186.97,14.85c0,8.48-6.09,14.85-14.97,14.85s-14.93-6.37-14.93-14.85,6.04-14.85,14.93-14.85,14.97,6.37,14.97,14.85ZM183.09,14.85c0-6.72-4.37-11.67-11.09-11.67s-11.05,4.95-11.05,11.67,4.28,11.67,11.05,11.67,11.09-4.99,11.09-11.67Z"/>
        </g>
      </g>
    </g>
  </g>
</svg>